<svg xmlns="http://www.w3.org/2000/svg" xmlns:xlink="http://www.w3.org/1999/xlink" width="200" zoomAndPan="magnify" viewBox="0 0 150 149.999998" height="200" preserveAspectRatio="xMidYMid meet" version="1.2"><g id="adb79e7ae9"><path style=" stroke:none;fill-rule:nonzero;fill:#6540d7;fill-opacity:1;" d="M 79.292969 2.355469 L 88.8125 11.820312 C 90.34375 13.339844 92.566406 13.9375 94.652344 13.382812 L 107.632812 9.945312 C 110.863281 9.085938 114.175781 11.003906 115.050781 14.226562 L 118.558594 27.183594 C 119.125 29.265625 120.75 30.890625 122.832031 31.457031 L 135.789062 34.964844 C 139.015625 35.839844 140.929688 39.15625 140.070312 42.386719 L 136.632812 55.363281 C 136.082031 57.449219 136.675781 59.671875 138.195312 61.203125 L 147.660156 70.722656 C 150.015625 73.089844 150.015625 76.917969 147.660156 79.289062 L 138.195312 88.808594 C 136.675781 90.335938 136.082031 92.5625 136.632812 94.648438 L 140.070312 107.625 C 140.929688 110.855469 139.011719 114.171875 135.789062 115.046875 L 122.832031 118.554688 C 120.75 119.121094 119.125 120.746094 118.558594 122.828125 L 115.050781 135.785156 C 114.175781 139.011719 110.863281 140.925781 107.632812 140.066406 L 94.652344 136.628906 C 92.566406 136.078125 90.347656 136.671875 88.8125 138.191406 L 79.292969 147.65625 C 76.925781 150.011719 73.101562 150.011719 70.726562 147.65625 L 61.207031 138.191406 C 59.679688 136.671875 57.453125 136.078125 55.367188 136.628906 L 42.390625 140.066406 C 39.160156 140.925781 35.84375 139.007812 34.96875 135.785156 L 31.460938 122.828125 C 30.894531 120.746094 29.269531 119.121094 27.1875 118.554688 L 14.230469 115.046875 C 11.003906 114.171875 9.09375 110.855469 9.949219 107.625 L 13.386719 94.648438 C 13.941406 92.5625 13.34375 90.34375 11.824219 88.808594 L 2.359375 79.289062 C 0.00390625 76.921875 0.00390625 73.09375 2.359375 70.722656 L 11.824219 61.203125 C 13.34375 59.675781 13.941406 57.449219 13.386719 55.363281 L 9.949219 42.386719 C 9.09375 39.15625 11.007812 35.839844 14.230469 34.964844 L 27.1875 31.457031 C 29.269531 30.890625 30.894531 29.265625 31.460938 27.183594 L 34.96875 14.226562 C 35.84375 11 39.160156 9.085938 42.390625 9.945312 L 55.367188 13.382812 C 57.453125 13.9375 59.675781 13.339844 61.207031 11.820312 L 70.726562 2.355469 C 73.09375 0 76.921875 0 79.292969 2.355469 Z M 79.292969 2.355469 "/><path style=" stroke:none;fill-rule:nonzero;fill:#ffffff;fill-opacity:1;" d="M 60.820312 103.980469 C 59.355469 103.980469 57.886719 103.425781 56.773438 102.304688 L 38.660156 84.195312 C 36.425781 81.960938 36.425781 78.335938 38.660156 76.097656 C 40.894531 73.859375 44.519531 73.863281 46.753906 76.097656 L 60.820312 90.164062 L 103.269531 47.714844 C 105.503906 45.480469 109.125 45.480469 111.363281 47.714844 C 113.597656 49.949219 113.597656 53.574219 111.363281 55.8125 L 64.867188 102.304688 C 63.75 103.425781 62.289062 103.980469 60.824219 103.980469 Z M 60.820312 103.980469 "/></g></svg>